<mxfile host="65bd71144e">
    <diagram id="rA5KS_z2IOA_mz4io4nV" name="Page-1">
        <mxGraphModel dx="753" dy="420" grid="1" gridSize="10" guides="1" tooltips="1" connect="1" arrows="1" fold="1" page="1" pageScale="1" pageWidth="850" pageHeight="1100" math="0" shadow="0">
            <root>
                <mxCell id="0"/>
                <mxCell id="1" parent="0"/>
                <mxCell id="38" style="edgeStyle=none;html=1;" parent="1" source="21" target="33" edge="1">
                    <mxGeometry relative="1" as="geometry"/>
                </mxCell>
                <mxCell id="21" value="detail:&#10;d.detail" style="rounded=1;whiteSpace=wrap;fillColor=#cce5ff;strokeColor=#36393d;fontColor=#000000;" parent="1" vertex="1">
                    <mxGeometry x="190" y="40" width="230" height="40" as="geometry"/>
                </mxCell>
                <mxCell id="32" value="type:flux" style="rounded=1;whiteSpace=wrap;fillColor=#ffcccc;strokeColor=#36393d;fontColor=#000000;" parent="1" vertex="1">
                    <mxGeometry x="40" y="40" width="100" height="40" as="geometry"/>
                </mxCell>
                <mxCell id="37" style="edgeStyle=none;html=1;" parent="1" source="33" target="35" edge="1">
                    <mxGeometry relative="1" as="geometry"/>
                </mxCell>
                <mxCell id="33" value="localFiles1.randomerror&#10;timeout:8" style="rounded=1;whiteSpace=wrap;fillColor=#ffff88;strokeColor=#36393d;fontColor=#000000;" parent="1" vertex="1">
                    <mxGeometry x="215" y="120" width="180" height="60" as="geometry"/>
                </mxCell>
                <mxCell id="35" value="detail:&#10;d.detail" style="rounded=1;whiteSpace=wrap;fillColor=#cce5ff;strokeColor=#36393d;fontColor=#000000;" parent="1" vertex="1">
                    <mxGeometry x="202.5" y="220" width="205" height="40" as="geometry"/>
                </mxCell>
                <mxCell id="40" style="edgeStyle=none;html=1;entryX=1;entryY=0.5;entryDx=0;entryDy=0;" parent="1" source="39" target="33" edge="1">
                    <mxGeometry relative="1" as="geometry">
                        <Array as="points">
                            <mxPoint x="565" y="150"/>
                        </Array>
                    </mxGeometry>
                </mxCell>
                <mxCell id="39" value="scope:&#10;d.scope" style="rounded=1;whiteSpace=wrap;fillColor=#cce5ff;strokeColor=#36393d;fontColor=#000000;" parent="1" vertex="1">
                    <mxGeometry x="450" y="40" width="230" height="40" as="geometry"/>
                </mxCell>
            </root>
        </mxGraphModel>
    </diagram>
</mxfile>